<svg xmlns="http://www.w3.org/2000/svg" width="279.05" height="263.86" viewBox="0 0 279.05 263.86"><title>svg1</title><path d="M212.69,163.84l-31.86-2.34c-9.39-.69-20-2.75-29.14.36-7.62,2.59-13.41,8.4-17.41,15.24-4.21,7.2-8.11,16.6-7.76,25.05.7,16.61,17,23.37,31,26.35,10.19,2.17,20.42,4.2,30.62,6.29l14.36,3a10.2,10.2,0,0,0,2.87.59l1.18.27-1.53-2.77c-.53.1-3,4.87-3.28,5.3-9.5,14.25-20.09,27.84-26.64,43.81-3.3,8-6.2,17.46-5.23,26.22s7.51,15.59,15.81,18.38c17.24,5.81,36.7-7.26,49.71-17.29,14-10.78,26-23.74,39-35.58,12.43-11.29,26.39-22,42.89-26.33,3.85-1,8.28-2.14,12.29-1.52,4.26.66,7.78,3.65,11.54,5.54a26.87,26.87,0,0,0,24.53.32c8-3.75,14.43-10.5,20-17.19A132.55,132.55,0,0,0,401,214.92c3.6-6.76,7.31-15.75,1.46-22.45S384.89,186,376.71,185c-8.58-1.05-17.19-1.92-25.63-3.82-7.87-1.78-17.1-4.33-23.21-9.92s1.36-15.5,4.47-21.38c4.08-7.73,8.53-15.26,12.63-23a160.9,160.9,0,0,0,11-24.72c2.56-7.76,5.18-16.91.83-24.54-8.13-14.26-28.35-11-41.42-7.77C298.68,74,282.83,81.72,268.74,91.46a189.93,189.93,0,0,0-20.11,16c-3.22,2.93-6.14,6.21-9.4,9.09-3,2.6-4.8,2.55-8.22.78-7.09-3.69-13.19-8.16-21.58-8a30.17,30.17,0,0,0-20.32,8.51c-11.09,10.9-9.94,29.24.83,39.94a27.18,27.18,0,0,0,9.08,5.87c1.86.75,3.94,1.16,5.73,2a7,7,0,0,0,1.37.68c2.09.24-.84,2.23.77-.6-4.78,8.4,8.18,16,13,7.57,4.07-7.16.91-15.61-5.9-19.76-5.56-3.38-12.19-3.29-15.74-9.41a13.18,13.18,0,0,1,14.3-19.55c6.43,1.39,11.39,6.93,17.9,8.54,8.86,2.21,15.71-2.28,21.75-8.29a170,170,0,0,1,36.64-28.25c12.85-7.19,28-13.44,42.8-14.48,3.47-.24,10.7-.54,12.37,3.47,1.15,2.77-.92,7.56-1.73,10.24A95.9,95.9,0,0,1,338,107.32c-6.52,14.66-15.44,28.09-22.38,42.54-3.59,7.46-7.37,15.41-4.12,23.68,2.89,7.34,9.76,12.15,16.6,15.52,14.94,7.36,31.52,8.88,47.8,10.86,3.83.47,7.65,1,11.44,1.63,1.32.24,3.63,1,3.29-.14.28,1-1,2.89-1.35,3.68a104.17,104.17,0,0,1-13.08,20.49c-4.74,5.85-10.2,12.49-17.17,15.73-7.47,3.47-12.51-1.69-19-4.71-14.76-6.86-33,0-46.34,7.3-28.57,15.58-47.13,43.52-74,61.31-6.65,4.41-14.44,9.25-22.48,10.45-7.32,1.09-13.23-2.21-12.36-10.07,1.7-15.27,10.85-29,19.27-41.41,6.2-9.09,26.21-30.33,9.43-38.93-3.53-1.8-8-2.17-11.79-2.95l-14.35-3c-9-1.86-18.1-3.59-27.1-5.58-5.47-1.21-11.9-2.62-16.12-6.58-5.06-4.77-1.68-12.5.7-17.9,2.47-5.6,6.12-11.82,12.44-13.46,3.73-1,7.79-.48,11.58-.21,5,.35,10,.73,14.94,1.1l28.87,2.12c9.63.71,9.59-14.29,0-15Z" transform="translate(-126.5 -67.12)" fill="#231f20"/></svg>